<svg width="101" height="100" viewBox="0 0 101 100" fill="none" xmlns="http://www.w3.org/2000/svg">
<path d="M92.1667 69.7498V19.4581C92.1667 14.4581 88.0833 10.7498 83.125 11.1664H82.875C74.125 11.9164 60.8333 16.3748 53.4167 21.0414L52.7083 21.4998C51.5 22.2498 49.5 22.2498 48.2917 21.4998L47.25 20.8748C39.8333 16.2498 26.5833 11.8331 17.8333 11.1248C12.875 10.7081 8.83333 14.4581 8.83333 19.4164V69.7498C8.83333 73.7498 12.0833 77.4998 16.0833 77.9998L17.2917 78.1664C26.3333 79.3748 40.2917 83.9581 48.2917 88.3331L48.4583 88.4164C49.5833 89.0414 51.375 89.0414 52.4583 88.4164C60.4583 83.9998 74.4583 79.3748 83.5417 78.1664L84.9167 77.9998C88.9167 77.4998 92.1667 73.7498 92.1667 69.7498Z" stroke="black" stroke-width="5" stroke-linecap="round" stroke-linejoin="round"/>
<path d="M50.5 22.875V85.375" stroke="black" stroke-width="5" stroke-linecap="round" stroke-linejoin="round"/>
<path d="M32.7917 35.375H23.4167" stroke="#014479" stroke-width="5" stroke-linecap="round" stroke-linejoin="round"/>
<path d="M35.9167 47.875H23.4167" stroke="#014479" stroke-width="5" stroke-linecap="round" stroke-linejoin="round"/>
</svg>
