<svg width="100" height="100" viewBox="0 0 100 100" fill="none" xmlns="http://www.w3.org/2000/svg">
<path d="M54.1667 91.6667H20.8333C12.5 91.6667 8.33333 87.5 8.33333 79.1667V45.8333C8.33333 37.5 12.5 33.3333 20.8333 33.3333H41.6667V79.1667C41.6667 87.5 45.8333 91.6667 54.1667 91.6667Z" stroke="black" stroke-width="5" stroke-miterlimit="10" stroke-linecap="round" stroke-linejoin="round"/>
<path d="M42.1249 16.6667C41.7916 17.9167 41.6667 19.2917 41.6667 20.8333V33.3333H20.8333V25C20.8333 20.4167 24.5833 16.6667 29.1667 16.6667H42.1249Z" stroke="black" stroke-width="5" stroke-miterlimit="10" stroke-linecap="round" stroke-linejoin="round"/>
<path d="M58.3333 33.3333V54.1667" stroke="#014479" stroke-width="5" stroke-miterlimit="10" stroke-linecap="round" stroke-linejoin="round"/>
<path d="M75 33.3333V54.1667" stroke="#014479" stroke-width="5" stroke-miterlimit="10" stroke-linecap="round" stroke-linejoin="round"/>
<path d="M70.8333 70.8333H62.5C60.2083 70.8333 58.3333 72.7083 58.3333 75V91.6666H75V75C75 72.7083 73.125 70.8333 70.8333 70.8333Z" stroke="black" stroke-width="5" stroke-miterlimit="10" stroke-linecap="round" stroke-linejoin="round"/>
<path d="M25 54.1667V70.8333" stroke="#014479" stroke-width="5" stroke-miterlimit="10" stroke-linecap="round" stroke-linejoin="round"/>
<path d="M41.6667 79.1667V20.8333C41.6667 12.5 45.8333 8.33334 54.1667 8.33334H79.1667C87.5 8.33334 91.6667 12.5 91.6667 20.8333V79.1667C91.6667 87.5 87.5 91.6667 79.1667 91.6667H54.1667C45.8333 91.6667 41.6667 87.5 41.6667 79.1667Z" stroke="black" stroke-width="5" stroke-miterlimit="10" stroke-linecap="round" stroke-linejoin="round"/>
</svg>
