<svg width="101" height="100" viewBox="0 0 101 100" fill="none" xmlns="http://www.w3.org/2000/svg">
<path d="M25.25 54.6666C25.25 54.6666 38 54.1666 50.5 58.3333C63 62.4999 74.7917 54.6249 74.7917 54.6249" stroke="#014479" stroke-width="5" stroke-linecap="round" stroke-linejoin="round"/>
<path d="M34.5 91.6666C17.0833 91.6666 13.5833 81.125 19.25 68.2916L36.9583 28.0833H35.7083C33 28.0833 30.5 27 28.7083 25.2083C26.875 23.4166 25.7917 20.9166 25.7917 18.2083C25.7917 12.7916 30.2083 8.33331 35.6667 8.33331H65.2917C68.0417 8.33331 70.5 9.45831 72.2917 11.25C74.625 13.5833 75.7917 17 74.9167 20.625C73.7917 25.125 69.4583 28.0833 64.8333 28.0833H64.1667L81.75 68.3333C87.375 81.1666 83.7083 91.6666 66.4583 91.6666H34.5Z" stroke="#1A1A1A" stroke-width="5" stroke-linecap="round" stroke-linejoin="round"/>
</svg>
