<svg width="101" height="100" viewBox="0 0 101 100" fill="none" xmlns="http://www.w3.org/2000/svg">
<path d="M55.5 89.0416C52.75 92.7083 48.2499 92.7083 45.4999 89.0416L39.2499 80.7083C38.5416 79.7916 37.0417 79.0416 35.9167 79.0416H33.8333C17.1667 79.0416 8.83333 74.8749 8.83333 54.0416V33.2083C8.83333 16.5416 17.1667 8.20825 33.8333 8.20825H67.1667C83.8333 8.20825 92.1667 16.5416 92.1667 33.2083V54.0416" stroke="black" stroke-width="5" stroke-miterlimit="10" stroke-linecap="round" stroke-linejoin="round"/>
<path d="M76.3334 89.1667C83.6972 89.1667 89.6666 83.1971 89.6666 75.8333C89.6666 68.4695 83.6972 62.5 76.3334 62.5C68.9696 62.5 63 68.4695 63 75.8333C63 83.1971 68.9696 89.1667 76.3334 89.1667Z" stroke="#014479" stroke-width="5" stroke-linecap="round" stroke-linejoin="round"/>
<path d="M92.1667 91.6667L88 87.5" stroke="#014479" stroke-width="5" stroke-linecap="round" stroke-linejoin="round"/>
<path d="M67.1519 45.8333H67.1893" stroke="black" stroke-width="5" stroke-linecap="round" stroke-linejoin="round"/>
<path d="M50.4812 45.8333H50.5186" stroke="black" stroke-width="5" stroke-linecap="round" stroke-linejoin="round"/>
<path d="M33.8104 45.8333H33.8479" stroke="black" stroke-width="5" stroke-linecap="round" stroke-linejoin="round"/>
</svg>
