<svg width="101" height="100" viewBox="0 0 101 100" fill="none" xmlns="http://www.w3.org/2000/svg">
<path d="M40.0833 57.2916C40.0833 61.3333 43.2084 64.5833 47.0417 64.5833H54.8749C58.2083 64.5833 60.9166 61.75 60.9166 58.2083C60.9166 54.4166 59.25 53.0417 56.7917 52.1667L44.25 47.7916C41.7916 46.9166 40.125 45.5833 40.125 41.75C40.125 38.25 42.8333 35.375 46.1666 35.375H54C57.8333 35.375 60.9584 38.625 60.9584 42.6667" stroke="#014479" stroke-width="5" stroke-linecap="round" stroke-linejoin="round"/>
<path d="M50.5 31.25V68.75" stroke="#014479" stroke-width="5" stroke-linecap="round" stroke-linejoin="round"/>
<path d="M92.1666 50C92.1666 73 73.5 91.6667 50.5 91.6667C27.5 91.6667 8.83331 73 8.83331 50C8.83331 27 27.5 8.33337 50.5 8.33337" stroke="black" stroke-width="5" stroke-linecap="round" stroke-linejoin="round"/>
<path d="M71.3333 12.5V29.1667H88" stroke="black" stroke-width="5" stroke-linecap="round" stroke-linejoin="round"/>
<path d="M92.1666 8.33337L71.3333 29.1667" stroke="black" stroke-width="5" stroke-linecap="round" stroke-linejoin="round"/>
</svg>
