<svg width="101" height="100" viewBox="0 0 101 100" fill="none" xmlns="http://www.w3.org/2000/svg">
<path d="M33.8333 8.33334V20.8333" stroke="black" stroke-width="5" stroke-miterlimit="10" stroke-linecap="round" stroke-linejoin="round"/>
<path d="M67.1667 8.33334V20.8333" stroke="black" stroke-width="5" stroke-miterlimit="10" stroke-linecap="round" stroke-linejoin="round"/>
<path d="M88 35.4167V56.7917C84.2917 53.8334 79.5833 52.0833 74.4583 52.0833C69.3333 52.0833 64.5417 53.8749 60.7917 56.9166C55.75 60.8749 52.5833 67.0833 52.5833 73.9583C52.5833 78.0417 53.75 81.9584 55.75 85.2084C57.2917 87.7501 59.2916 89.9583 61.6666 91.6667H33.8333C19.25 91.6667 13 83.3333 13 70.8333V35.4167C13 22.9167 19.25 14.5833 33.8333 14.5833H67.1667C81.75 14.5833 88 22.9167 88 35.4167Z" stroke="black" stroke-width="5" stroke-miterlimit="10" stroke-linecap="round" stroke-linejoin="round"/>
<path d="M29.6667 45.8333H54.6667" stroke="black" stroke-width="5" stroke-miterlimit="10" stroke-linecap="round" stroke-linejoin="round"/>
<path d="M29.6667 66.6667H40.5833" stroke="black" stroke-width="5" stroke-miterlimit="10" stroke-linecap="round" stroke-linejoin="round"/>
<path d="M96.3333 73.9583C96.3333 78.0417 95.1666 81.9584 93.1666 85.2084C92 87.2084 90.5417 88.9584 88.8334 90.375C85 93.7917 80 95.8333 74.4583 95.8333C69.6667 95.8333 65.25 94.2917 61.6666 91.6667C59.2916 89.9583 57.2917 87.7501 55.75 85.2084C53.75 81.9584 52.5833 78.0417 52.5833 73.9583C52.5833 67.0833 55.75 60.8749 60.7917 56.9166C64.5417 53.8749 69.3333 52.0833 74.4583 52.0833C79.5833 52.0833 84.2917 53.8334 88 56.7917C93.0833 60.7917 96.3333 67 96.3333 73.9583Z" stroke="black" stroke-width="5" stroke-miterlimit="10" stroke-linecap="round" stroke-linejoin="round"/>
<path d="M74.4583 84.375C74.4583 78.625 79.125 73.9583 84.875 73.9583C79.125 73.9583 74.4583 69.2917 74.4583 63.5417C74.4583 69.2917 69.7917 73.9583 64.0417 73.9583C69.7917 73.9583 74.4583 78.625 74.4583 84.375Z" stroke="#014479" stroke-width="5" stroke-linecap="round" stroke-linejoin="round"/>
</svg>
