<svg width="100" height="100" viewBox="0 0 100 100" fill="none" xmlns="http://www.w3.org/2000/svg">
<path d="M75.0001 29.8334C74.7501 29.7917 74.4584 29.7917 74.2084 29.8334C68.4584 29.625 63.8751 24.9167 63.8751 19.0834C63.8751 13.125 68.6667 8.33334 74.6251 8.33334C80.5834 8.33334 85.375 13.1667 85.375 19.0834C85.3334 24.9167 80.7501 29.625 75.0001 29.8334Z" stroke="black" stroke-width="5" stroke-linecap="round" stroke-linejoin="round"/>
<path d="M70.7083 60.1667C76.4167 61.125 82.7083 60.125 87.125 57.1667C93 53.25 93 46.8334 87.125 42.9167C82.6667 39.9584 76.2916 38.9584 70.5833 39.9584" stroke="black" stroke-width="5" stroke-linecap="round" stroke-linejoin="round"/>
<path d="M24.8749 29.8334C25.1249 29.7917 25.4166 29.7917 25.6666 29.8334C31.4166 29.625 35.9999 24.9167 35.9999 19.0834C35.9999 13.125 31.2083 8.33334 25.2499 8.33334C19.2916 8.33334 14.4999 13.1667 14.4999 19.0834C14.5416 24.9167 19.1249 29.625 24.8749 29.8334Z" stroke="black" stroke-width="5" stroke-linecap="round" stroke-linejoin="round"/>
<path d="M29.1667 60.1667C23.4583 61.125 17.1667 60.125 12.75 57.1667C6.875 53.25 6.875 46.8334 12.75 42.9167C17.2083 39.9584 23.5833 38.9584 29.2917 39.9584" stroke="black" stroke-width="5" stroke-linecap="round" stroke-linejoin="round"/>
<path d="M49.9998 60.9584C49.7498 60.9167 49.4581 60.9167 49.2081 60.9584C43.4581 60.75 38.8748 56.0417 38.8748 50.2084C38.8748 44.25 43.6665 39.4583 49.6248 39.4583C55.5831 39.4583 60.3748 44.2917 60.3748 50.2084C60.3331 56.0417 55.7498 60.7917 49.9998 60.9584Z" stroke="#014479" stroke-width="5" stroke-linecap="round" stroke-linejoin="round"/>
<path d="M37.8749 74.0833C31.9999 77.9999 31.9999 84.4166 37.8749 88.3333C44.5415 92.7916 55.4582 92.7916 62.1249 88.3333C67.9999 84.4166 67.9999 77.9999 62.1249 74.0833C55.4999 69.6666 44.5415 69.6666 37.8749 74.0833Z" stroke="#014479" stroke-width="5" stroke-linecap="round" stroke-linejoin="round"/>
</svg>
