<svg width="101" height="100" viewBox="0 0 101 100" fill="none" xmlns="http://www.w3.org/2000/svg">
<path d="M50.5 50C62.0059 50 71.3333 40.6726 71.3333 29.1667C71.3333 17.6607 62.0059 8.33334 50.5 8.33334C38.9941 8.33334 29.6667 17.6607 29.6667 29.1667C29.6667 40.6726 38.9941 50 50.5 50Z" stroke="#1A1A1A" stroke-width="5" stroke-linecap="round" stroke-linejoin="round"/>
<path d="M80.5417 65.5834L65.7915 80.3336C65.2082 80.9169 64.6665 82.0001 64.5415 82.7918L63.7499 88.4167C63.4582 90.4583 64.8749 91.875 66.9166 91.5834L72.5415 90.7917C73.3331 90.6667 74.4583 90.1251 74.9999 89.5417L89.7498 74.7918C92.2915 72.2502 93.4998 69.2917 89.7498 65.5417C86.0415 61.8334 83.0833 63.0417 80.5417 65.5834Z" stroke="#014479" stroke-width="5" stroke-miterlimit="10" stroke-linecap="round" stroke-linejoin="round"/>
<path d="M78.4167 67.7083C79.6667 72.2083 83.1666 75.7082 87.6666 76.9582" stroke="#014479" stroke-width="5" stroke-miterlimit="10" stroke-linecap="round" stroke-linejoin="round"/>
<path d="M14.7082 91.6667C14.7082 75.5417 30.75 62.5 50.5 62.5C54.8333 62.5 58.9999 63.125 62.8749 64.2916" stroke="#1A1A1A" stroke-width="5" stroke-linecap="round" stroke-linejoin="round"/>
</svg>
